# xmcd CD database file
#
# Track frame offsets:
#	150
#	15875
#	33240
#	49165
#	65185
#	80350
#	97110
#	110845
#	125643
#	139835
#	152960
#	166693
#	181470
#	195298
#	207250
#	221680
#	237268
#	252203
#	263470
#	279018
#	290155
#	303070
#
# Disc length: 4204 seconds
#
# Revision: 0
# Processed by: cddbd v1.5.1PL0 Copyright (c) Steve Scherf et al.
# Submitted via: CDex 1.51
#
DISCID=36106a16
DTITLE=Washboard Rhythm Kings - The Washboard Rhythm Kings Collection, Vol.4, 1933 [Collector's Classics #26, 1997]
DYEAR=1933
DGENRE=Jazz
TTITLE0=Midnight Rhythm
TTITLE1=A Ghost of a Chance
TTITLE2=Hustlin' and Bustlin' for Baby
TTITLE3=Shuffle off to Buffalo
TTITLE4=Swing Gate
TTITLE5=The Coming of Hi-De-Ho
TTITLE6=Going! Going!! Gone!!!
TTITLE7=Trust Me for a Hamburger
TTITLE8=Dinah
TTITLE9=Sophisticated Lady
TTITLE10=Happy as the Day Is Long
TTITLE11=Nobody's Sweetheart
TTITLE12=My Pretty Girl
TTITLE13=Bug-A-Boo
TTITLE14=I Want to Ring Bells
TTITLE15=I Would If I Could But I Can't
TTITLE16=Hard Corn
TTITLE17=Hot Nuts
TTITLE18=Move Turtle
TTITLE19=Mickey Mouse and the Turtle
TTITLE20=I Would If I Could But I Can't
TTITLE21=Shoutin' in the Amen Corner
EXTD=YEAR: 1933
EXTT0=
EXTT1=
EXTT2=
EXTT3=
EXTT4=
EXTT5=
EXTT6=
EXTT7=
EXTT8=
EXTT9=
EXTT10=
EXTT11=
EXTT12=
EXTT13=
EXTT14=
EXTT15=
EXTT16=
EXTT17=
EXTT18=
EXTT19=
EXTT20=
EXTT21=
PLAYORDER=
